<?xml version="1.0" standalone="no"?><!DOCTYPE svg PUBLIC "-//W3C//DTD SVG 1.1//EN" "http://www.w3.org/Graphics/SVG/1.1/DTD/svg11.dtd"><svg class="icon" width="200px" height="200.00px" viewBox="0 0 1024 1024" version="1.1" xmlns="http://www.w3.org/2000/svg"><path fill="#333333" d="M212.992 526.336 212.992 526.336 212.992 526.336 215.04 526.336 212.992 526.336ZM927.744 530.432 567.296 530.432c-10.24 0-20.48 10.24-20.48 20.48l0 221.184c0 12.288 10.24 20.48 20.48 20.48l360.448 0c10.24 0 20.48-8.192 20.48-20.48L948.224 550.912C948.224 538.624 937.984 530.432 927.744 530.432zM909.312 729.088c0 14.336-10.24 24.576-24.576 24.576L610.304 753.664c-14.336 0-24.576-10.24-24.576-24.576L585.728 593.92c0-14.336 10.24-24.576 24.576-24.576l272.384 0c14.336 0 24.576 10.24 24.576 24.576L907.264 729.088zM663.552 815.104l167.936 0 0 24.576-167.936 0 0-24.576ZM454.656 178.176 96.256 178.176c-12.288 0-20.48 10.24-20.48 20.48l0 221.184c0 12.288 8.192 20.48 20.48 20.48l360.448 0c12.288 0 20.48-8.192 20.48-20.48L477.184 198.656C475.136 186.368 466.944 178.176 454.656 178.176zM436.224 376.832c0 14.336-10.24 24.576-24.576 24.576L139.264 401.408c-14.336 0-24.576-10.24-24.576-24.576l0-135.168c0-14.336 10.24-24.576 24.576-24.576l272.384 0c14.336 0 24.576 10.24 24.576 24.576L436.224 376.832zM192.512 462.848l167.936 0 0 24.576-167.936 0 0-24.576ZM727.04 313.344l24.576 0 0 223.232-24.576 0 0-223.232ZM751.616 198.656c-36.864 0-65.536 30.72-65.536 65.536s30.72 65.536 65.536 65.536c36.864 0 65.536-30.72 65.536-65.536S788.48 198.656 751.616 198.656zM751.616 303.104c-20.48 0-38.912-16.384-38.912-38.912s16.384-38.912 38.912-38.912 38.912 16.384 38.912 38.912S774.144 303.104 751.616 303.104zM323.584 684.032l223.232 0 0 24.576-223.232 0 0-24.576ZM475.136 253.952l223.232 0 0 24.576-223.232 0 0-24.576ZM270.336 487.424l24.576 0 0 169.984-24.576 0 0-169.984ZM270.336 638.976c-36.864 0-65.536 30.72-65.536 65.536s30.72 65.536 65.536 65.536 65.536-30.72 65.536-65.536S307.2 638.976 270.336 638.976zM270.336 743.424c-20.48 0-38.912-16.384-38.912-38.912s16.384-38.912 38.912-38.912 38.912 16.384 38.912 38.912S290.816 743.424 270.336 743.424z" /></svg>