<?xml version="1.0" standalone="no"?><!DOCTYPE svg PUBLIC "-//W3C//DTD SVG 1.1//EN" "http://www.w3.org/Graphics/SVG/1.1/DTD/svg11.dtd"><svg class="icon" width="200px" height="200.00px" viewBox="0 0 1024 1024" version="1.1" xmlns="http://www.w3.org/2000/svg"><path fill="#333333" d="M874.496 693.4528c-12.288-12.288-33.5872-3.6864-33.5872 13.9264v59.392H684.032l-40.96-76.1856c16.384-11.0592 28.2624-24.9856 32.768-42.1888 1.2288-3.2768 2.048-7.3728 2.048-11.0592v-241.664-1.6384-2.4576c0-23.7568-13.5168-43.008-35.2256-57.344l40.96-76.1856h157.2864v53.6576c0 17.6128 21.2992 26.2144 33.5872 13.9264l84.3776-84.3776c7.7824-7.7824 7.7824-20.0704 0-27.8528l-84.3776-84.3776c-12.288-12.288-33.5872-3.6864-33.5872 13.9264V196.608h-175.3088c-11.4688 0-21.7088 6.144-27.0336 15.9744L585.728 310.0672c-22.9376-5.7344-48.7424-8.6016-73.728-8.6016s-50.7904 2.8672-73.728 8.6016L385.4336 212.1728c-5.3248-9.8304-15.5648-15.9744-27.0336-15.9744H183.0912V142.5408c0-17.6128-21.2992-26.2144-33.5872-13.9264L65.1264 212.992c-7.7824 7.7824-7.7824 20.0704 0 27.8528l84.3776 84.3776c12.288 12.288 33.5872 3.6864 33.5872-13.9264V257.6384H339.968l40.96 76.1856c-21.7088 14.336-35.2256 33.5872-35.2256 57.344v245.76c0 3.6864 0.8192 7.3728 2.048 10.6496 4.5056 17.2032 16.384 31.5392 33.1776 42.5984l-40.96 76.1856H183.0912V712.704c0-17.6128-21.2992-26.2144-33.5872-13.9264l-84.3776 84.3776c-7.7824 7.7824-7.7824 20.0704 0 27.8528l84.3776 84.3776c12.288 12.288 33.5872 3.6864 33.5872-13.9264v-53.6576h175.3088c11.4688 0 21.7088-6.144 27.0336-15.9744l52.8384-97.8944c23.7568 5.7344 49.152 8.6016 73.728 8.6016s50.3808-2.8672 73.728-8.6016l52.8384 97.8944c5.3248 9.8304 15.5648 15.9744 27.0336 15.9744h175.3088v47.5136c0 17.6128 21.2992 26.2144 33.5872 13.9264l84.3776-84.3776c7.7824-7.7824 7.7824-20.0704 0-27.8528l-84.3776-83.5584z m-466.944-61.44V399.7696c0.4096-2.4576 0.4096-5.3248 0-8.192 4.9152-9.0112 40.5504-29.0816 104.448-29.0816s99.5328 20.0704 104.448 29.0816c-0.4096 2.8672-0.4096 5.3248 0 7.7824v232.2432c-4.096 8.6016-39.7312 29.4912-104.448 29.4912s-100.352-20.48-104.448-29.0816z"  /></svg>